<svg width="25" height="25" viewBox="0 0 25 25" fill="none" xmlns="http://www.w3.org/2000/svg">
<g id = 'inst'>
<path d="M12.5686 0.78125C5.89146 0.78125 0.459229 6.21348 0.459229 12.8906C0.459229 19.5678 5.89146 25 12.5686 25C19.2458 25 24.678 19.5678 24.678 12.8906C24.678 6.21348 19.2458 0.78125 12.5686 0.78125ZM20.575 6.36553C22.0155 8.12559 22.8879 10.3673 22.9106 12.8086C22.5696 12.7365 19.15 12.0429 15.7084 12.4757C15.4275 11.7901 15.1625 11.187 14.7994 10.4438C18.6236 8.88242 20.3569 6.6605 20.575 6.36553ZM19.4251 5.16943C19.2391 5.43442 17.6821 7.52715 14.0042 8.90571C12.3092 5.79165 10.4307 3.23345 10.1448 2.85063C13.4249 2.05996 16.8814 2.91265 19.4251 5.16943ZM8.17119 3.5459C8.4439 3.91987 10.2922 6.48125 12.006 9.52778C7.16777 10.8126 2.9064 10.7941 2.4438 10.788C3.1145 7.57837 5.27749 4.91079 8.17119 3.5459ZM2.22534 12.9064C2.22534 12.8006 2.22744 12.6954 2.23062 12.5903C2.68315 12.5996 7.69546 12.6642 12.8608 11.1184C13.1569 11.6979 13.4397 12.2861 13.6994 12.8737C9.95918 13.9271 6.56099 16.9521 4.88438 19.8222C3.23237 17.9885 2.22534 15.563 2.22534 12.9064ZM6.21982 21.0662C7.30024 18.8576 10.2324 16.0065 14.4024 14.584C15.8545 18.3576 16.4551 21.5202 16.6089 22.4276C13.2831 23.8443 9.28394 23.4556 6.21982 21.0662ZM18.3478 21.4807C18.2417 20.8515 17.6912 17.8236 16.3384 14.1061C19.5796 13.5872 22.4272 14.4365 22.7811 14.5482C22.3201 17.4262 20.6682 19.9117 18.3478 21.4807Z" fill="black"/>
</g>
<g id = 'codeSvg'>
<path d="M11.5181 6.28027C8.4126 6.28027 5.90771 8.78516 5.90771 11.8906C5.90771 14.9961 8.4126 17.501 11.5181 17.501C14.6235 17.501 17.1284 14.9961 17.1284 11.8906C17.1284 8.78516 14.6235 6.28027 11.5181 6.28027ZM11.5181 15.5381C9.51123 15.5381 7.8706 13.9023 7.8706 11.8906C7.8706 9.87891 9.50635 8.24316 11.5181 8.24316C13.5298 8.24316 15.1655 9.87891 15.1655 11.8906C15.1655 13.9023 13.5249 15.5381 11.5181 15.5381ZM18.6665 6.05078C18.6665 6.77832 18.0806 7.35938 17.3579 7.35938C16.6304 7.35938 16.0493 6.77344 16.0493 6.05078C16.0493 5.32812 16.6353 4.74219 17.3579 4.74219C18.0806 4.74219 18.6665 5.32812 18.6665 6.05078ZM22.3823 7.37891C22.2993 5.62598 21.8989 4.07324 20.6147 2.79395C19.3354 1.51465 17.7827 1.11426 16.0298 1.02637C14.2231 0.923828 8.80811 0.923828 7.00146 1.02637C5.25342 1.10938 3.70068 1.50977 2.4165 2.78906C1.13232 4.06836 0.736816 5.62109 0.648926 7.37402C0.546387 9.18066 0.546387 14.5957 0.648926 16.4023C0.731934 18.1553 1.13232 19.708 2.4165 20.9873C3.70068 22.2666 5.24854 22.667 7.00146 22.7549C8.80811 22.8574 14.2231 22.8574 16.0298 22.7549C17.7827 22.6719 19.3354 22.2715 20.6147 20.9873C21.894 19.708 22.2944 18.1553 22.3823 16.4023C22.4849 14.5957 22.4849 9.18555 22.3823 7.37891ZM20.0483 18.3408C19.6675 19.2979 18.9302 20.0352 17.9683 20.4209C16.5278 20.9922 13.1099 20.8604 11.5181 20.8604C9.92627 20.8604 6.50342 20.9873 5.06787 20.4209C4.11084 20.04 3.37354 19.3027 2.98779 18.3408C2.4165 16.9004 2.54834 13.4824 2.54834 11.8906C2.54834 10.2988 2.42139 6.87598 2.98779 5.44043C3.36865 4.4834 4.10596 3.74609 5.06787 3.36035C6.5083 2.78906 9.92627 2.9209 11.5181 2.9209C13.1099 2.9209 16.5327 2.79395 17.9683 3.36035C18.9253 3.74121 19.6626 4.47852 20.0483 5.44043C20.6196 6.88086 20.4878 10.2988 20.4878 11.8906C20.4878 13.4824 20.6196 16.9053 20.0483 18.3408Z" fill="black"/>
</g>
<g id='Be'>
<path d="M9.78442 13.6973C9.78442 14.6396 9.10083 14.9375 8.26099 14.9375H6.05884V12.3545H8.30493C9.21313 12.3594 9.78442 12.7354 9.78442 13.6973ZM9.40845 9.67871C9.40845 8.81445 8.7395 8.60938 7.99731 8.60938H6.06372V10.7969H8.14868C8.88599 10.7969 9.40845 10.4746 9.40845 9.67871ZM15.8684 10.8115C14.9749 10.8115 14.3792 11.3682 14.3206 12.2617H17.3577C17.2747 11.3584 16.8059 10.8115 15.8684 10.8115ZM22.553 3.29688V20.4844C22.553 21.7783 21.5032 22.8281 20.2092 22.8281H3.02173C1.72778 22.8281 0.677979 21.7783 0.677979 20.4844V3.29688C0.677979 2.00293 1.72778 0.953125 3.02173 0.953125H20.2092C21.5032 0.953125 22.553 2.00293 22.553 3.29688ZM13.9446 8.42383H17.7434V7.50098H13.9446V8.42383ZM11.845 13.8096C11.845 12.6328 11.2883 11.6172 10.136 11.29C10.9758 10.8896 11.4153 10.4258 11.4153 9.4834C11.4153 7.61816 10.0237 7.16406 8.41724 7.16406H3.99829V16.5391H8.54419C10.2483 16.5293 11.845 15.7139 11.845 13.8096ZM19.2327 13.0869C19.2327 11.0801 18.0559 9.40527 15.9319 9.40527C13.8616 9.40527 12.4602 10.958 12.4602 12.999C12.4602 15.1133 13.7932 16.5635 15.9319 16.5635C17.553 16.5635 18.6028 15.8359 19.1106 14.2783H17.4651C17.2844 14.8594 16.5569 15.1621 15.9905 15.1621C14.8967 15.1621 14.3254 14.5225 14.3254 13.4385H19.218C19.2229 13.3262 19.2327 13.2041 19.2327 13.0869Z" fill="black"/>
</g>

<g id='Pe'>
<path d="M20.8655 0.953125H2.1106C1.25122 0.953125 0.552979 1.66113 0.552979 2.53027V21.251C0.552979 22.1201 1.25122 22.8281 2.1106 22.8281H20.8655C21.7249 22.8281 22.428 22.1201 22.428 21.251V2.53027C22.428 1.66113 21.7249 0.953125 20.8655 0.953125ZM7.16431 19.7031H3.92212V9.26367H7.16919V19.7031H7.16431ZM5.54321 7.83789C4.50317 7.83789 3.66333 6.99316 3.66333 5.95801C3.66333 4.92285 4.50317 4.07812 5.54321 4.07812C6.57837 4.07812 7.4231 4.92285 7.4231 5.95801C7.4231 6.99805 6.58325 7.83789 5.54321 7.83789ZM19.3176 19.7031H16.0754V14.625C16.0754 13.4141 16.051 11.8564 14.3909 11.8564C12.7014 11.8564 12.4426 13.1748 12.4426 14.5371V19.7031H9.20044V9.26367H12.3108V10.6895H12.3547C12.7893 9.86914 13.8489 9.00488 15.426 9.00488C18.7073 9.00488 19.3176 11.168 19.3176 13.9805V19.7031Z" fill="black"/>

</g>
 <g id = 'arrow'>
 <path d="M7.00878 7.00875L2.23206 11.6823C1.90191 12.0053 1.36804 12.0053 1.04139 11.6823L0.247617 10.9057C-0.0825389 10.5826 -0.0825389 10.0603 0.247617 9.74071L3.63347 6.428L0.247617 3.11528C-0.0825389 2.79226 -0.0825389 2.26992 0.247617 1.95033L1.03788 1.16683C1.36804 0.843805 1.90191 0.843805 2.22855 1.16683L7.00527 5.84037C7.33894 6.16339 7.33894 6.68573 7.00878 7.00875ZM13.7524 5.84037L8.97566 1.16683C8.64551 0.843805 8.11164 0.843805 7.785 1.16683L6.99122 1.94346C6.66106 2.26648 6.66106 2.78882 6.99122 3.10841L10.3771 6.42112L6.99122 9.73384C6.66106 10.0569 6.66106 10.5792 6.99122 10.8988L7.785 11.6754C8.11515 11.9984 8.64902 11.9984 8.97566 11.6754L13.7524 7.00188C14.0825 6.68573 14.0825 6.16339 13.7524 5.84037Z" fill="#0FBF61"/>
 </g>
 <g id = 'arrow1'>
 <path fill-rule="evenodd" clip-rule="evenodd" d="M0 11C0 10.5833 0.17777 10.1837 0.494202 9.88903C0.810635 9.59439 1.23981 9.42886 1.68731 9.42886H21.2365L13.9912 2.6855C13.6744 2.39048 13.4964 1.99035 13.4964 1.57313C13.4964 1.15591 13.6744 0.755778 13.9912 0.460759C14.308 0.16574 14.7377 0 15.1858 0C15.6339 0 16.0636 0.16574 16.3804 0.460759L26.5043 9.88763C26.6614 10.0336 26.7861 10.207 26.8712 10.3978C26.9562 10.5887 27 10.7933 27 11C27 11.2067 26.9562 11.4113 26.8712 11.6022C26.7861 11.793 26.6614 11.9664 26.5043 12.1124L16.3804 21.5392C16.0636 21.8343 15.6339 22 15.1858 22C14.7377 22 14.308 21.8343 13.9912 21.5392C13.6744 21.2442 13.4964 20.8441 13.4964 20.4269C13.4964 20.0097 13.6744 19.6095 13.9912 19.3145L21.2365 12.5711H1.68731C1.23981 12.5711 0.810635 12.4056 0.494202 12.111C0.17777 11.8163 0 11.4167 0 11Z" fill="black"/>
 </g>
 <g id ='flag'>
 <circle cx="256" cy="256" fill="#f0f0f0" r="256"></circle><path d="m496.077 345.043c10.291-27.733 15.923-57.729 15.923-89.043s-5.632-61.31-15.923-89.043h-480.154c-10.29 27.733-15.923 57.729-15.923 89.043s5.633 61.31 15.923 89.043l240.077 22.261z" fill="#0052b4"></path><path d="m256 512c110.071 0 203.906-69.472 240.077-166.957h-480.154c36.171 97.485 130.006 166.957 240.077 166.957z" fill="#d80027"></path>
 </g>
</svg>
